<svg xmlns="http://www.w3.org/2000/svg" width="24" height="24.00003" viewBox="0 0 24 24.00003"><g id="efbf8826-ecf0-42ab-8d65-551f89ba5b4e" data-name="Layer 2"><g id="a375cd8e-f592-4de0-acb3-4d94b47e3941" data-name="Layer 4"><rect width="11.12195" height="11.12195" rx="3.55106" fill="#cfdee5"/><path d="M17.48924,0h5.39734a1.10361,1.10361,0,0,1,1.10361,1.10361V6.501a4.621,4.621,0,0,1-4.621,4.621H14.23562a1.36738,1.36738,0,0,1-1.36738-1.36738V4.621A4.621,4.621,0,0,1,17.48924,0Z" fill="#cfdee5" opacity="0.47"/><rect x="12.87805" y="12.86827" width="11.12195" height="11.12195" rx="3.55106" fill="#cfdee5"/><path d="M4.28583,12.87808H9.32969a1.80209,1.80209,0,0,1,1.80209,1.80209V19.724A4.276,4.276,0,0,1,6.85577,24H1.27122a1.2614,1.2614,0,0,1-1.2614-1.2614V17.15409a4.276,4.276,0,0,1,4.276-4.276Z" fill="#cfdee5" opacity="0.47"/></g></g></svg>